<?xml version="1.0" encoding="UTF-8" standalone="no"?>
<svg
   xmlns:dc="http://purl.org/dc/elements/1.1/"
   xmlns:cc="http://creativecommons.org/ns#"
   xmlns:rdf="http://www.w3.org/1999/02/22-rdf-syntax-ns#"
   xmlns:svg="http://www.w3.org/2000/svg"
   xmlns="http://www.w3.org/2000/svg"
   viewBox="0 0 308.47733 127.25747"
   height="127.25747"
   width="308.47733"
   xml:space="preserve"
   id="svg2"
   version="1.1"><metadata
     id="metadata8"><rdf:RDF><cc:Work
         rdf:about=""><dc:format>image/svg+xml</dc:format><dc:type
           rdf:resource="http://purl.org/dc/dcmitype/StillImage" /></cc:Work></rdf:RDF></metadata><defs
     id="defs6"><clipPath
       id="clipPath18"
       clipPathUnits="userSpaceOnUse"><path
         id="path16"
         d="M 0,95.443 H 231.358 V 0 H 0 Z" /></clipPath><clipPath
       id="clipPath42"
       clipPathUnits="userSpaceOnUse"><path
         id="path40"
         d="M 0,95.443 H 231.358 V 0 H 0 Z" /></clipPath><clipPath
       id="clipPath64"
       clipPathUnits="userSpaceOnUse"><path
         id="path62"
         d="M 0,95.443 H 231.358 V 0 H 0 Z" /></clipPath><clipPath
       id="clipPath80"
       clipPathUnits="userSpaceOnUse"><path
         id="path78"
         d="M 0,95.443 H 231.358 V 0 H 0 Z" /></clipPath><clipPath
       id="clipPath108"
       clipPathUnits="userSpaceOnUse"><path
         id="path106"
         d="M 0,95.443 H 231.358 V 0 H 0 Z" /></clipPath><clipPath
       id="clipPath128"
       clipPathUnits="userSpaceOnUse"><path
         id="path126"
         d="M 0,95.443 H 231.358 V 0 H 0 Z" /></clipPath><clipPath
       id="clipPath146"
       clipPathUnits="userSpaceOnUse"><path
         id="path144"
         d="M 0,95.443 H 231.358 V 0 H 0 Z" /></clipPath><clipPath
       id="clipPath162"
       clipPathUnits="userSpaceOnUse"><path
         id="path160"
         d="M 0,95.443 H 231.358 V 0 H 0 Z" /></clipPath></defs><g
     transform="matrix(1.3333333,0,0,-1.3333333,0,127.25747)"
     id="g10"><g
       id="g12"><g
         clip-path="url(#clipPath18)"
         id="g14"><g
           transform="translate(132.1099,48.6587)"
           id="g20"><path
             id="path22"
             style="fill:#ee2722;fill-opacity:1;fill-rule:nonzero;stroke:none"
             d="m 0,0 c -1.88,0 -3.19,0.604 -4.124,1.479 l 1.266,1.867 c 0.67,-0.672 1.701,-1.227 2.982,-1.227 0.811,0 1.309,0.277 1.309,0.738 0,1.225 -5.248,0.207 -5.248,3.789 0,1.557 1.308,2.954 3.689,2.954 1.488,0 2.785,-0.448 3.773,-1.297 L 2.339,6.508 C 1.56,7.162 0.544,7.48 -0.375,7.48 -1.075,7.48 -1.38,7.242 -1.38,6.84 -1.38,5.768 3.226,6.459 3.812,3.715 L 6.59,14.088 h -9.433 c -1.642,0 -3.33,-1.334 -3.769,-2.973 l -4.184,-15.606 h 9.436 c 1.64,0 3.33,1.332 3.769,2.973 L 3.101,1.068 C 2.45,0.396 1.403,0 0,0" /></g><g
           transform="translate(105.9429,56.0161)"
           id="g24"><path
             id="path26"
             style="fill:#ee2722;fill-opacity:1;fill-rule:nonzero;stroke:none"
             d="M 0,0 V -7.203 H -2.396 V 0 H -5.001 V 2.088 H 3.066 L 4.311,6.73 h -9.434 c -1.645,0 -3.332,-1.334 -3.772,-2.972 l -4.181,-15.606 h 9.433 c 1.644,0 3.332,1.331 3.772,2.973 L 2.505,0 Z" /></g><g
           transform="translate(117.3608,48.6509)"
           id="g28"><path
             id="path30"
             style="fill:#ee2722;fill-opacity:1;fill-rule:nonzero;stroke:none"
             d="m 0,0 c -2.771,0 -5.027,1.855 -5.027,4.807 0,2.953 2.256,4.804 5.027,4.804 2.076,0 3.33,-1.099 3.971,-2.256 L 1.965,6.313 C 1.617,6.922 0.907,7.496 0,7.496 c -1.52,0 -2.59,-1.156 -2.59,-2.689 0,-1.52 1.07,-2.688 2.59,-2.688 0.684,0 1.381,0.279 1.714,0.557 V 3.4 H -0.374 V 5.502 H 4.109 V 2.881 l 3.004,11.215 h -9.431 c -1.642,0 -3.33,-1.334 -3.767,-2.973 L -10.27,-4.483 h 9.434 c 1.645,0 3.332,1.332 3.772,2.973 L 3.717,1.414 C 2.77,0.545 1.535,0 0,0" /></g></g></g><g
       transform="translate(102.9341,39.7461)"
       id="g32"><path
         id="path34"
         style="fill:#2151a8;fill-opacity:1;fill-rule:nonzero;stroke:none"
         d="M 0,0 H -1.087 V -2.977 H -2.163 V 0 H -3.247 L -3.322,0.076 V 0.981 H 0.069 V 0.076 Z" /></g><g
       id="g36"><g
         clip-path="url(#clipPath42)"
         id="g38"><g
           transform="translate(106.8149,38.2188)"
           id="g44"><path
             id="path46"
             style="fill:#2151a8;fill-opacity:1;fill-rule:nonzero;stroke:none"
             d="m 0,0 c 0,-0.18 -0.03,-0.348 -0.089,-0.508 -0.06,-0.16 -0.142,-0.305 -0.248,-0.435 -0.109,-0.131 -0.234,-0.241 -0.383,-0.334 -0.146,-0.094 -0.302,-0.166 -0.472,-0.217 -0.075,-0.022 -0.151,-0.043 -0.231,-0.059 -0.076,-0.011 -0.156,-0.015 -0.233,-0.015 -0.077,0 -0.157,0.004 -0.234,0.015 -0.076,0.016 -0.151,0.037 -0.228,0.059 -0.168,0.051 -0.328,0.123 -0.474,0.217 -0.143,0.093 -0.273,0.203 -0.378,0.334 -0.106,0.13 -0.191,0.275 -0.25,0.435 -0.06,0.16 -0.088,0.328 -0.088,0.508 v 2.508 h 1.101 V 0.066 c 0,-0.074 0.015,-0.142 0.044,-0.203 0.033,-0.068 0.071,-0.123 0.123,-0.168 0.051,-0.043 0.111,-0.082 0.178,-0.105 0.064,-0.026 0.134,-0.039 0.206,-0.039 0.075,0 0.146,0.013 0.212,0.039 0.066,0.023 0.123,0.062 0.175,0.105 0.052,0.045 0.092,0.1 0.122,0.168 0.033,0.061 0.046,0.129 0.046,0.203 V 2.508 H 0 Z" /></g><g
           transform="translate(110.0034,36.7695)"
           id="g48"><path
             id="path50"
             style="fill:#2151a8;fill-opacity:1;fill-rule:nonzero;stroke:none"
             d="M 0,0 -0.688,1.225 H -1.357 L -1.352,0 h -1.091 v 3.957 h 1.983 c 0.095,0 0.19,-0.016 0.291,-0.051 C -0.07,3.869 0.023,3.818 0.116,3.762 0.207,3.703 0.293,3.635 0.372,3.561 0.449,3.486 0.516,3.41 0.57,3.33 0.639,3.229 0.689,3.119 0.727,2.99 0.762,2.854 0.779,2.729 0.779,2.611 0.779,2.414 0.732,2.229 0.643,2.061 0.551,1.893 0.422,1.746 0.258,1.633 L 1.189,0 Z M -0.771,3.074 H -1.389 V 2.225 h 0.618 c 0.063,0 0.119,0.011 0.171,0.033 0.055,0.021 0.103,0.053 0.143,0.09 0.045,0.039 0.074,0.086 0.1,0.136 0.024,0.049 0.035,0.104 0.035,0.168 0,0.057 -0.011,0.114 -0.035,0.166 -0.026,0.051 -0.055,0.094 -0.1,0.135 -0.04,0.039 -0.088,0.07 -0.143,0.088 -0.052,0.022 -0.108,0.033 -0.171,0.033" /></g></g></g><g
       transform="translate(113.5513,38.8574)"
       id="g52"><path
         id="path54"
         style="fill:#2151a8;fill-opacity:1;fill-rule:nonzero;stroke:none"
         d="M 0,0 1.565,-2.088 H 0.28 l -1.086,1.332 v -1.332 h -1.086 v 3.957 h 1.086 V 0.541 L 0.28,1.869 h 1.336 z" /></g><path
       id="path56"
       style="fill:#2151a8;fill-opacity:1;fill-rule:nonzero;stroke:none"
       d="m 115.636,40.727 h 1.068 V 36.77 h -1.068 z" /><g
       id="g58"><g
         clip-path="url(#clipPath64)"
         id="g60"><g
           transform="translate(118.9888,36.6484)"
           id="g66"><path
             id="path68"
             style="fill:#2151a8;fill-opacity:1;fill-rule:nonzero;stroke:none"
             d="m 0,0 c -0.267,0 -0.528,0.033 -0.787,0.092 -0.261,0.064 -0.511,0.152 -0.747,0.262 -0.008,0 -0.024,0.009 -0.053,0.021 -0.023,0.02 -0.039,0.029 -0.039,0.035 0,0.002 0.007,0.016 0.022,0.039 0.012,0.024 0.027,0.055 0.05,0.09 0.02,0.037 0.043,0.074 0.073,0.123 0.026,0.045 0.05,0.092 0.078,0.139 0.056,0.095 0.115,0.181 0.164,0.269 0.052,0.084 0.084,0.147 0.107,0.184 0.045,-0.018 0.086,-0.037 0.127,-0.063 0.186,-0.089 0.369,-0.158 0.556,-0.212 0.182,-0.047 0.38,-0.073 0.589,-0.073 0.056,0 0.119,0.002 0.183,0.008 0.069,0.008 0.125,0.018 0.184,0.039 0.055,0.02 0.099,0.053 0.135,0.096 0.033,0.041 0.05,0.098 0.05,0.178 0,0.039 -0.007,0.072 -0.029,0.101 C 0.644,1.357 0.616,1.383 0.589,1.406 0.556,1.428 0.524,1.447 0.491,1.463 0.457,1.482 0.425,1.494 0.392,1.506 0.319,1.531 0.248,1.551 0.174,1.566 0.097,1.58 0.022,1.594 -0.052,1.611 -0.149,1.637 -0.249,1.658 -0.343,1.676 -0.437,1.697 -0.528,1.723 -0.618,1.748 -0.708,1.777 -0.794,1.807 -0.879,1.84 -0.964,1.875 -1.038,1.912 -1.11,1.953 -1.259,2.041 -1.376,2.16 -1.46,2.309 -1.547,2.461 -1.592,2.654 -1.592,2.9 c 0,0.086 0.013,0.17 0.03,0.256 0.018,0.088 0.047,0.17 0.083,0.248 0.074,0.159 0.169,0.284 0.292,0.387 0.12,0.105 0.249,0.184 0.395,0.244 0.145,0.055 0.298,0.096 0.457,0.121 0.161,0.024 0.316,0.035 0.479,0.035 0.259,0 0.519,-0.033 0.775,-0.095 C 1.175,4.035 1.417,3.93 1.649,3.789 1.562,3.643 1.479,3.502 1.399,3.363 1.321,3.225 1.239,3.084 1.157,2.941 0.961,3.037 0.771,3.115 0.586,3.176 0.399,3.24 0.198,3.27 -0.015,3.27 -0.063,3.27 -0.12,3.268 -0.174,3.262 -0.231,3.258 -0.283,3.242 -0.33,3.221 -0.378,3.205 -0.417,3.174 -0.447,3.133 -0.479,3.096 -0.494,3.041 -0.494,2.977 c 0,-0.045 0.011,-0.086 0.029,-0.123 0.027,-0.034 0.068,-0.069 0.13,-0.098 0.064,-0.027 0.141,-0.053 0.234,-0.08 C -0.011,2.654 0.092,2.629 0.198,2.607 0.308,2.588 0.422,2.563 0.541,2.529 0.657,2.5 0.772,2.463 0.89,2.426 1.008,2.387 1.117,2.34 1.222,2.285 1.325,2.227 1.417,2.16 1.499,2.086 1.581,2.008 1.646,1.918 1.692,1.813 1.729,1.736 1.755,1.647 1.771,1.559 1.782,1.473 1.79,1.381 1.79,1.293 1.79,1.035 1.737,0.824 1.632,0.658 1.526,0.488 1.388,0.359 1.22,0.264 1.05,0.164 0.858,0.096 0.644,0.057 0.431,0.02 0.216,0 0,0" /></g></g></g><g
       transform="translate(123.9595,36.7695)"
       id="g70"><path
         id="path72"
         style="fill:#2151a8;fill-opacity:1;fill-rule:nonzero;stroke:none"
         d="M 0,0 V 1.498 H -1.403 V 0 h -1.098 v 3.957 h 1.098 V 2.449 H 0 V 3.957 H 1.104 L 1.104,0 Z" /></g><g
       id="g74"><g
         clip-path="url(#clipPath80)"
         id="g76"><g
           transform="translate(86.8198,31.1934)"
           id="g82"><path
             id="path84"
             style="fill:#2151a8;fill-opacity:1;fill-rule:nonzero;stroke:none"
             d="m 0,0 c -0.295,0 -0.568,0.055 -0.822,0.164 -0.253,0.107 -0.474,0.256 -0.66,0.447 -0.189,0.186 -0.332,0.41 -0.44,0.661 -0.103,0.255 -0.156,0.527 -0.156,0.822 0,0.283 0.053,0.552 0.159,0.808 0.108,0.254 0.256,0.477 0.444,0.674 0.189,0.188 0.411,0.34 0.662,0.449 0.254,0.114 0.528,0.166 0.821,0.166 0.312,0 0.607,-0.064 0.888,-0.199 C 1.178,3.855 1.42,3.668 1.627,3.424 L 0.764,2.846 C 0.656,2.953 0.541,3.031 0.412,3.086 0.285,3.146 0.148,3.174 0.008,3.174 -0.145,3.174 -0.279,3.143 -0.41,3.084 -0.536,3.022 -0.646,2.945 -0.74,2.846 -0.834,2.746 -0.908,2.635 -0.961,2.502 -1.01,2.371 -1.037,2.234 -1.037,2.088 c 0,-0.149 0.027,-0.289 0.076,-0.42 0.053,-0.133 0.127,-0.248 0.221,-0.348 0.097,-0.099 0.209,-0.177 0.336,-0.236 0.129,-0.059 0.265,-0.09 0.418,-0.09 0.158,0 0.309,0.039 0.453,0.108 0.146,0.072 0.267,0.17 0.367,0.304 H 0.135 V 2.355 H 1.873 V 0.963 C 1.873,0.963 1.157,0 0,0" /></g><g
           transform="translate(91.8374,31.3145)"
           id="g86"><path
             id="path88"
             style="fill:#2151a8;fill-opacity:1;fill-rule:nonzero;stroke:none"
             d="M 0,0 -0.688,1.227 H -1.355 L -1.35,0 h -1.091 v 3.959 h 1.982 c 0.098,0 0.193,-0.016 0.291,-0.055 0.1,-0.033 0.193,-0.082 0.285,-0.14 C 0.209,3.703 0.293,3.639 0.373,3.561 0.452,3.486 0.518,3.41 0.572,3.33 0.639,3.232 0.691,3.117 0.727,2.984 0.764,2.855 0.78,2.734 0.78,2.615 0.78,2.416 0.732,2.232 0.645,2.063 0.553,1.893 0.426,1.748 0.259,1.635 L 1.189,0 Z M -0.77,3.08 H -1.387 V 2.225 h 0.617 c 0.063,0 0.118,0.013 0.174,0.035 0.055,0.019 0.102,0.051 0.143,0.09 0.041,0.039 0.071,0.084 0.096,0.132 0.023,0.053 0.037,0.108 0.037,0.17 0,0.063 -0.014,0.116 -0.037,0.166 C -0.382,2.867 -0.412,2.912 -0.453,2.953 -0.494,2.994 -0.541,3.021 -0.596,3.045 -0.652,3.064 -0.707,3.08 -0.77,3.08" /></g><g
           transform="translate(95.1304,31.1934)"
           id="g90"><path
             id="path92"
             style="fill:#2151a8;fill-opacity:1;fill-rule:nonzero;stroke:none"
             d="m 0,0 c -0.293,0 -0.566,0.055 -0.82,0.164 -0.254,0.107 -0.479,0.256 -0.666,0.447 -0.196,0.186 -0.342,0.41 -0.453,0.664 -0.112,0.254 -0.166,0.528 -0.166,0.819 0,0.287 0.054,0.556 0.166,0.814 0.111,0.252 0.257,0.477 0.453,0.668 0.187,0.186 0.412,0.334 0.666,0.445 0.254,0.11 0.527,0.165 0.82,0.165 0.291,0 0.564,-0.055 0.818,-0.165 C 1.078,3.91 1.301,3.762 1.49,3.576 1.682,3.385 1.83,3.16 1.941,2.908 2.051,2.65 2.107,2.381 2.107,2.094 2.107,1.803 2.051,1.529 1.941,1.275 1.83,1.021 1.682,0.797 1.49,0.611 1.301,0.42 1.078,0.271 0.818,0.164 0.564,0.055 0.291,0 0,0 M 0,3.178 C -0.148,3.178 -0.288,3.15 -0.414,3.086 -0.543,3.029 -0.65,2.949 -0.744,2.85 -0.837,2.754 -0.908,2.637 -0.961,2.508 -1.014,2.377 -1.041,2.236 -1.041,2.094 -1.041,1.947 -1.014,1.811 -0.961,1.68 -0.908,1.547 -0.837,1.43 -0.744,1.33 -0.65,1.231 -0.543,1.154 -0.414,1.092 -0.288,1.035 -0.148,1.006 0,1.006 c 0.148,0 0.291,0.029 0.414,0.086 0.13,0.062 0.238,0.139 0.33,0.238 0.093,0.1 0.164,0.217 0.217,0.35 C 1.016,1.811 1.04,1.947 1.04,2.094 1.04,2.236 1.016,2.377 0.961,2.508 0.908,2.637 0.837,2.754 0.744,2.85 0.652,2.949 0.544,3.029 0.414,3.086 0.291,3.15 0.148,3.178 0,3.178" /></g><g
           transform="translate(101.1665,32.7656)"
           id="g94"><path
             id="path96"
             style="fill:#2151a8;fill-opacity:1;fill-rule:nonzero;stroke:none"
             d="m 0,0 c 0,-0.18 -0.026,-0.354 -0.089,-0.51 -0.06,-0.162 -0.142,-0.304 -0.249,-0.433 -0.106,-0.129 -0.233,-0.244 -0.38,-0.334 -0.146,-0.096 -0.304,-0.168 -0.472,-0.219 -0.077,-0.025 -0.153,-0.045 -0.233,-0.055 -0.08,-0.012 -0.156,-0.021 -0.232,-0.021 -0.08,0 -0.158,0.009 -0.235,0.021 -0.077,0.01 -0.151,0.03 -0.226,0.055 -0.17,0.051 -0.326,0.123 -0.474,0.219 -0.145,0.09 -0.272,0.205 -0.38,0.334 -0.107,0.129 -0.188,0.271 -0.25,0.433 -0.06,0.156 -0.088,0.33 -0.088,0.51 v 2.508 h 1.1 V 0.066 c 0,-0.076 0.016,-0.144 0.045,-0.209 0.032,-0.062 0.072,-0.115 0.125,-0.164 0.049,-0.045 0.109,-0.078 0.176,-0.105 0.064,-0.026 0.136,-0.039 0.207,-0.039 0.074,0 0.146,0.013 0.211,0.039 0.063,0.027 0.123,0.06 0.175,0.105 0.052,0.049 0.092,0.102 0.122,0.164 0.033,0.065 0.046,0.133 0.046,0.209 V 2.508 H 0 Z" /></g></g></g><g
       transform="translate(104.3569,31.3203)"
       id="g98"><path
         id="path100"
         style="fill:#2151a8;fill-opacity:1;fill-rule:nonzero;stroke:none"
         d="M 0,0 -1.371,2.113 V 0 h -1.057 v 3.953 h 1.049 L 0,1.822 V 3.953 H 1.061 V 0 Z" /></g><g
       id="g102"><g
         clip-path="url(#clipPath108)"
         id="g104"><g
           transform="translate(107.9624,31.3184)"
           id="g110"><path
             id="path112"
             style="fill:#2151a8;fill-opacity:1;fill-rule:nonzero;stroke:none"
             d="M 0,0 H -1.77 V 3.955 H 0 C 0.277,3.955 0.533,3.904 0.773,3.799 1.018,3.697 1.229,3.555 1.407,3.379 1.586,3.199 1.73,2.988 1.832,2.748 1.936,2.504 1.988,2.25 1.988,1.977 1.988,1.705 1.936,1.447 1.832,1.209 1.73,0.965 1.586,0.756 1.407,0.578 1.229,0.397 1.018,0.258 0.773,0.156 0.533,0.051 0.277,0 0,0 M -0.122,2.99 H -0.73 V 0.959 h 0.608 c 0.143,0 0.276,0.027 0.399,0.08 0.125,0.055 0.235,0.127 0.325,0.221 0.093,0.09 0.166,0.197 0.216,0.324 0.053,0.121 0.078,0.252 0.078,0.393 0,0.14 -0.025,0.269 -0.078,0.396 C 0.768,2.496 0.695,2.604 0.602,2.697 0.512,2.785 0.402,2.859 0.277,2.914 0.154,2.967 0.021,2.99 -0.122,2.99" /></g><g
           transform="translate(113.2261,31.1934)"
           id="g114"><path
             id="path116"
             style="fill:#2151a8;fill-opacity:1;fill-rule:nonzero;stroke:none"
             d="m 0,0 c -0.266,0 -0.525,0.031 -0.789,0.094 -0.259,0.062 -0.508,0.152 -0.746,0.261 -0.007,0 -0.026,0.008 -0.049,0.02 -0.027,0.018 -0.045,0.029 -0.045,0.037 0,0.002 0.01,0.016 0.022,0.039 0.015,0.026 0.031,0.053 0.05,0.09 0.022,0.035 0.047,0.074 0.073,0.123 0.026,0.043 0.052,0.09 0.082,0.139 0.058,0.093 0.113,0.183 0.163,0.267 0.05,0.088 0.087,0.149 0.106,0.186 0.043,-0.018 0.088,-0.037 0.127,-0.061 0.186,-0.093 0.367,-0.162 0.557,-0.211 0.183,-0.05 0.379,-0.076 0.588,-0.076 0.054,0 0.119,0.002 0.183,0.006 0.069,0.01 0.127,0.02 0.184,0.039 0.055,0.02 0.099,0.053 0.133,0.094 0.037,0.043 0.052,0.105 0.052,0.184 0,0.035 -0.007,0.07 -0.028,0.099 C 0.643,1.359 0.615,1.383 0.586,1.406 0.555,1.43 0.523,1.449 0.488,1.465 0.457,1.48 0.422,1.494 0.393,1.508 0.32,1.531 0.248,1.553 0.174,1.566 0.098,1.578 0.021,1.596 -0.053,1.613 -0.152,1.637 -0.248,1.662 -0.344,1.68 -0.438,1.701 -0.529,1.723 -0.618,1.75 -0.711,1.777 -0.795,1.807 -0.879,1.842 -0.963,1.875 -1.043,1.908 -1.113,1.953 -1.26,2.047 -1.376,2.162 -1.463,2.311 -1.547,2.457 -1.592,2.656 -1.592,2.9 c 0,0.086 0.01,0.172 0.029,0.256 0.018,0.09 0.045,0.17 0.083,0.254 0.075,0.153 0.171,0.283 0.291,0.387 0.121,0.099 0.25,0.178 0.394,0.238 0.147,0.057 0.298,0.096 0.457,0.121 0.158,0.026 0.32,0.035 0.481,0.035 C 0.404,4.191 0.663,4.16 0.918,4.1 1.174,4.035 1.415,3.934 1.646,3.789 1.563,3.645 1.479,3.5 1.396,3.363 1.32,3.225 1.238,3.084 1.156,2.941 0.958,3.041 0.77,3.115 0.584,3.178 0.396,3.238 0.197,3.27 -0.016,3.27 -0.066,3.27 -0.119,3.268 -0.176,3.26 -0.23,3.258 -0.283,3.244 -0.33,3.225 -0.377,3.203 -0.42,3.176 -0.449,3.133 -0.479,3.096 -0.497,3.045 -0.497,2.979 c 0,-0.047 0.013,-0.088 0.032,-0.123 0.024,-0.038 0.069,-0.071 0.132,-0.098 0.06,-0.029 0.14,-0.057 0.231,-0.078 C -0.01,2.656 0.092,2.633 0.197,2.609 0.309,2.588 0.422,2.563 0.539,2.529 0.658,2.5 0.771,2.465 0.889,2.428 1.006,2.389 1.117,2.338 1.221,2.283 1.322,2.227 1.418,2.162 1.496,2.086 1.582,2.01 1.645,1.92 1.693,1.813 1.73,1.736 1.755,1.65 1.768,1.564 1.783,1.469 1.79,1.381 1.79,1.293 1.79,1.035 1.738,0.824 1.631,0.658 1.523,0.492 1.389,0.359 1.219,0.264 1.047,0.166 0.855,0.1 0.643,0.059 0.43,0.021 0.216,0 0,0" /></g></g></g><g
       transform="translate(115.6616,31.3145)"
       id="g118"><path
         id="path120"
         style="fill:#2151a8;fill-opacity:1;fill-rule:nonzero;stroke:none"
         d="M 0,0 V 3.959 H 3.158 V 3.014 H 1.031 V 2.451 H 3.033 V 1.508 H 1.031 V 0.939 H 3.158 V 0 Z" /></g><g
       id="g122"><g
         clip-path="url(#clipPath128)"
         id="g124"><g
           transform="translate(121.936,31.3145)"
           id="g130"><path
             id="path132"
             style="fill:#2151a8;fill-opacity:1;fill-rule:nonzero;stroke:none"
             d="M 0,0 -0.688,1.227 H -1.356 L -1.351,0 H -2.44 v 3.959 h 1.98 c 0.098,0 0.193,-0.016 0.293,-0.055 0.1,-0.033 0.193,-0.082 0.283,-0.14 C 0.208,3.703 0.295,3.639 0.372,3.561 0.452,3.486 0.519,3.41 0.573,3.33 0.642,3.232 0.692,3.117 0.728,2.984 0.763,2.855 0.778,2.734 0.778,2.615 0.778,2.416 0.735,2.232 0.644,2.063 0.552,1.893 0.425,1.748 0.261,1.635 L 1.188,0 Z M -0.771,3.08 H -1.388 V 2.225 h 0.617 c 0.063,0 0.12,0.013 0.174,0.035 0.055,0.019 0.103,0.051 0.143,0.09 0.041,0.039 0.074,0.084 0.098,0.132 0.023,0.053 0.037,0.108 0.037,0.17 0,0.063 -0.014,0.116 -0.037,0.166 -0.024,0.049 -0.057,0.094 -0.098,0.135 -0.04,0.041 -0.088,0.068 -0.143,0.092 -0.054,0.019 -0.111,0.035 -0.174,0.035" /></g></g></g><g
       transform="translate(125.271,31.3145)"
       id="g134"><path
         id="path136"
         style="fill:#2151a8;fill-opacity:1;fill-rule:nonzero;stroke:none"
         d="m 0,0 h -0.954 l -1.475,3.949 h 1.185 L -0.48,1.902 0.285,3.949 h 1.182 z" /></g><path
       id="path138"
       style="fill:#2151a8;fill-opacity:1;fill-rule:nonzero;stroke:none"
       d="m 127.222,35.273 h 1.064 v -3.959 h -1.064 z" /><g
       id="g140"><g
         clip-path="url(#clipPath146)"
         id="g142"><g
           transform="translate(130.8843,31.1934)"
           id="g148"><path
             id="path150"
             style="fill:#2151a8;fill-opacity:1;fill-rule:nonzero;stroke:none"
             d="m 0,0 c -0.293,0 -0.566,0.055 -0.818,0.166 -0.254,0.109 -0.475,0.262 -0.664,0.455 -0.19,0.192 -0.338,0.414 -0.448,0.664 -0.109,0.256 -0.161,0.526 -0.161,0.811 0,0.289 0.052,0.554 0.161,0.812 0.11,0.248 0.258,0.471 0.448,0.668 0.189,0.188 0.41,0.34 0.664,0.449 0.252,0.114 0.525,0.166 0.818,0.166 0.264,0 0.52,-0.048 0.766,-0.144 0.242,-0.1 0.47,-0.236 0.675,-0.42 L 0.626,2.91 C 0.428,3.051 0.221,3.121 0.005,3.121 -0.139,3.121 -0.271,3.094 -0.393,3.041 -0.516,2.986 -0.621,2.91 -0.71,2.813 -0.8,2.725 -0.869,2.611 -0.918,2.488 -0.971,2.363 -0.996,2.234 -0.996,2.096 -0.996,1.957 -0.971,1.828 -0.918,1.701 -0.869,1.576 -0.8,1.469 -0.71,1.375 -0.621,1.281 -0.516,1.207 -0.396,1.152 -0.275,1.092 -0.145,1.064 0,1.064 0.161,1.064 0.314,1.104 0.455,1.18 0.6,1.254 0.721,1.359 0.824,1.494 L 1.666,0.813 C 1.455,0.555 1.207,0.352 0.921,0.213 0.631,0.072 0.325,0 0,0" /></g></g></g><g
       transform="translate(132.8335,31.3145)"
       id="g152"><path
         id="path154"
         style="fill:#2151a8;fill-opacity:1;fill-rule:nonzero;stroke:none"
         d="M 0,0 V 3.959 H 3.158 V 3.014 H 1.03 V 2.451 H 3.037 V 1.508 H 1.03 V 0.939 H 3.158 V 0 Z" /></g><g
       id="g156"><g
         clip-path="url(#clipPath162)"
         id="g158"><g
           transform="translate(138.147,31.1934)"
           id="g164"><path
             id="path166"
             style="fill:#2151a8;fill-opacity:1;fill-rule:nonzero;stroke:none"
             d="m 0,0 c -0.267,0 -0.526,0.031 -0.787,0.094 -0.261,0.062 -0.509,0.152 -0.747,0.261 -0.008,0 -0.026,0.008 -0.051,0.02 -0.025,0.018 -0.041,0.029 -0.041,0.037 0,0.002 0.007,0.016 0.02,0.039 0.014,0.026 0.029,0.053 0.048,0.09 0.024,0.035 0.047,0.074 0.073,0.123 0.027,0.043 0.054,0.09 0.082,0.139 0.06,0.093 0.115,0.183 0.164,0.267 0.051,0.088 0.088,0.149 0.107,0.186 0.044,-0.018 0.086,-0.037 0.126,-0.061 0.187,-0.093 0.37,-0.162 0.554,-0.211 0.185,-0.05 0.383,-0.076 0.592,-0.076 0.054,0 0.119,0.002 0.183,0.006 0.067,0.01 0.129,0.02 0.184,0.039 0.053,0.02 0.099,0.053 0.135,0.094 0.033,0.043 0.05,0.105 0.05,0.184 0,0.035 -0.009,0.07 -0.029,0.099 C 0.644,1.359 0.616,1.383 0.586,1.406 0.556,1.43 0.524,1.449 0.489,1.465 0.456,1.48 0.422,1.494 0.392,1.508 0.319,1.531 0.248,1.553 0.174,1.566 0.097,1.578 0.022,1.596 -0.052,1.613 -0.151,1.637 -0.246,1.662 -0.343,1.68 c -0.094,0.021 -0.185,0.043 -0.275,0.07 -0.09,0.027 -0.179,0.057 -0.261,0.092 -0.085,0.033 -0.161,0.066 -0.233,0.111 -0.147,0.094 -0.261,0.209 -0.35,0.358 -0.085,0.146 -0.13,0.345 -0.13,0.589 0,0.086 0.01,0.172 0.03,0.256 0.018,0.09 0.047,0.17 0.083,0.254 0.074,0.153 0.169,0.283 0.291,0.387 0.121,0.099 0.25,0.178 0.394,0.238 0.147,0.057 0.297,0.096 0.459,0.121 0.156,0.026 0.316,0.035 0.477,0.035 C 0.403,4.191 0.663,4.16 0.919,4.1 1.175,4.035 1.415,3.934 1.646,3.789 1.562,3.645 1.479,3.5 1.397,3.363 1.321,3.225 1.239,3.084 1.157,2.941 0.961,3.041 0.771,3.115 0.583,3.178 0.399,3.238 0.198,3.27 -0.015,3.27 -0.067,3.27 -0.12,3.268 -0.177,3.26 -0.231,3.258 -0.283,3.244 -0.33,3.225 -0.378,3.203 -0.419,3.176 -0.449,3.133 -0.479,3.096 -0.494,3.045 -0.494,2.979 c 0,-0.047 0.011,-0.088 0.03,-0.123 C -0.438,2.818 -0.397,2.785 -0.333,2.758 -0.271,2.729 -0.194,2.701 -0.103,2.68 -0.011,2.656 0.092,2.633 0.198,2.609 0.308,2.588 0.422,2.563 0.541,2.529 0.657,2.5 0.772,2.465 0.89,2.428 1.005,2.389 1.117,2.338 1.222,2.283 1.323,2.227 1.417,2.162 1.497,2.086 1.581,2.01 1.644,1.92 1.692,1.813 1.729,1.736 1.755,1.65 1.769,1.564 1.782,1.469 1.79,1.381 1.79,1.293 1.79,1.035 1.737,0.824 1.632,0.658 1.526,0.492 1.392,0.359 1.22,0.264 1.05,0.166 0.856,0.1 0.644,0.059 0.431,0.021 0.214,0 0,0" /></g></g></g></g></svg>